HIERARCHY
ROOT Hips
{
	OFFSET 0.000000 0.000000 0.000000
	CHANNELS 6 Xposition Yposition Zposition Zrotation Yrotation Xrotation 
	JOINT LHipJoint
	{
		OFFSET 0.000000 0.000000 0.000000
		CHANNELS 3 Zrotation Yrotation Xrotation
		JOINT LeftUpLeg
		{
			OFFSET 1.363060 -1.794630 0.839290
			CHANNELS 3 Zrotation Yrotation Xrotation
			JOINT LeftLeg
			{
				OFFSET 2.448110 -6.726130 0.000000
				CHANNELS 3 Zrotation Yrotation Xrotation
				JOINT LeftFoot
				{
					OFFSET 2.562200 -7.039590 0.000000
					CHANNELS 3 Zrotation Yrotation Xrotation
					JOINT LeftToeBase
					{
						OFFSET 0.157640 -0.433110 2.322550
						CHANNELS 3 Zrotation Yrotation Xrotation
						End Site
						{
							OFFSET 0.000000 0.000000 0.000000
						}
					}
				}
			}
		}
	}
	JOINT RHipJoint
	{
		OFFSET 0.000000 0.000000 0.000000
		CHANNELS 3 Zrotation Yrotation Xrotation
		JOINT RightUpLeg
		{
			OFFSET -1.305520 -1.794630 0.839290
			CHANNELS 3 Zrotation Yrotation Xrotation
			JOINT RightLeg
			{
				OFFSET -2.542530 -6.985550 0.000000
				CHANNELS 3 Zrotation Yrotation Xrotation
				JOINT RightFoot
				{
					OFFSET -2.568260 -7.056230 0.000000
					CHANNELS 3 Zrotation Yrotation Xrotation
					JOINT RightToeBase
					{
						OFFSET -0.164730 -0.452590 2.363150
						CHANNELS 3 Zrotation Yrotation Xrotation
						End Site
						{
							OFFSET 0.000000 0.000000 0.000000
						}
					}
				}
			}
		}
	}
	JOINT LowerBack
	{
		OFFSET 0.000000 0.000000 0.000000
		CHANNELS 3 Zrotation Yrotation Xrotation
		JOINT Spine
		{
			OFFSET 0.028270 2.035590 -0.193380
			CHANNELS 3 Zrotation Yrotation Xrotation
			JOINT Spine1
			{
				OFFSET 0.056720 2.048850 -0.042750
				CHANNELS 3 Zrotation Yrotation Xrotation
				JOINT Neck
				{
					OFFSET 0.000000 0.000000 0.000000
					CHANNELS 3 Zrotation Yrotation Xrotation
					JOINT Neck1
					{
						OFFSET -0.054170 1.746240 0.172020
						CHANNELS 3 Zrotation Yrotation Xrotation
						JOINT Head
						{
							OFFSET 0.104070 1.761360 -0.123970
							CHANNELS 3 Zrotation Yrotation Xrotation
							End Site
							{
								OFFSET 0.000000 0.000000 0.000000
							}
						}
					}
				}
				JOINT LeftShoulder
				{
					OFFSET 0.000000 0.000000 0.000000
					CHANNELS 3 Zrotation Yrotation Xrotation
					JOINT LeftArm
					{
						OFFSET 3.362410 1.200890 -0.311210
						CHANNELS 3 Zrotation Yrotation Xrotation
						JOINT LeftForeArm
						{
							OFFSET 4.983000 -0.000000 -0.000000
							CHANNELS 3 Zrotation Yrotation Xrotation
							JOINT LeftHand
							{
								OFFSET 3.483560 -0.000000 -0.000000
								CHANNELS 3 Zrotation Yrotation Xrotation
								JOINT LeftFingerBase
								{
									OFFSET 0.000000 0.000000 0.000000
									CHANNELS 3 Zrotation Yrotation Xrotation
									JOINT LeftHandIndex1
									{
										OFFSET 0.715260 -0.000000 -0.000000
										CHANNELS 3 Zrotation Yrotation Xrotation
										End Site
										{
											OFFSET 0.000000 0.000000 0.000000
										}
									}
								}
								JOINT LThumb
								{
									OFFSET 0.000000 0.000000 0.000000
									CHANNELS 3 Zrotation Yrotation Xrotation
									End Site
									{
										OFFSET 0.000000 0.000000 0.000000
									}
								}
							}
						}
					}
				}
				JOINT RightShoulder
				{
					OFFSET 0.000000 0.000000 0.000000
					CHANNELS 3 Zrotation Yrotation Xrotation
					JOINT RightArm
					{
						OFFSET -3.136600 1.374050 -0.404650
						CHANNELS 3 Zrotation Yrotation Xrotation
						JOINT RightForeArm
						{
							OFFSET -5.241900 -0.000000 -0.000000
							CHANNELS 3 Zrotation Yrotation Xrotation
							JOINT RightHand
							{
								OFFSET -3.444170 -0.000000 -0.000000
								CHANNELS 3 Zrotation Yrotation Xrotation
								JOINT RightFingerBase
								{
									OFFSET 0.000000 0.000000 0.000000
									CHANNELS 3 Zrotation Yrotation Xrotation
									JOINT RightHandIndex1
									{
										OFFSET -0.622530 -0.000000 -0.000000
										CHANNELS 3 Zrotation Yrotation Xrotation
										End Site
										{
											OFFSET 0.000000 0.000000 0.000000
										}
									}
								}
								JOINT RThumb
								{
									OFFSET 0.000000 0.000000 0.000000
									CHANNELS 3 Zrotation Yrotation Xrotation
									End Site
									{
										OFFSET 0.000000 0.000000 0.000000
									}
								}
							}
						}
					}
				}
			}
		}
	}
}
MOTION
Frames: 6
Frame Time: 0.008333
-11.885151 17.933132 2.965487 -162.866873 -78.109057 166.257845 -5.155779 0.645169 2.386388 -10.343387 -1.553919 -14.939270 0.247773 9.414519 26.689458 1.166407 -5.361693 -2.695168 1.898000 -8.650300 -24.707400 1.614602 -0.839795 0.806632 19.056968 6.029197 -8.210146 -0.286443 -7.697174 23.552122 -1.356598 5.278475 -5.810601 -0.281700 3.413600 -9.432500 2.588086 0.046621 1.909477 1.464962 0.302929 -1.256035 -1.403654 0.114449 -5.805501 2.016103 3.918841 -2.136793 -1.025895 5.557629 7.059995 -2.655400 2.999300 -0.376600 -0.702177 -6.936148 1.781250 -90.142199 6.208456 21.373615 16.151176 -21.793765 -3.446150 0.099263 0.711243 13.224460 23.710282 9.097762 3.644800 -7.125000 0.000000 0.000000 -2.681000 39.037300 0.394200 5.247052 7.781587 1.604270 79.383650 -2.320887 39.531853 -12.948634 17.425905 -2.511357 1.327042 0.189503 34.513144 -14.752579 -28.370711 7.818800 7.125000 0.000000 0.000000 17.300500 -59.243900 -6.133800 
-11.898594 17.933232 2.960608 -164.337319 -78.212299 167.692525 -5.229968 0.630634 2.400001 -10.617374 -1.566172 -14.802084 0.211592 9.361042 26.538671 1.150013 -5.319214 -2.689500 1.866800 -8.583000 -24.499500 1.576173 -0.854088 0.803703 18.748242 5.902408 -8.306626 -0.321125 -7.762362 23.732055 -1.391952 5.388529 -5.954870 -0.300200 3.523200 -9.738900 2.256932 0.068029 1.738373 1.394915 0.313768 -1.247695 -1.338250 0.126252 -5.706662 2.092740 3.949886 -1.970296 -1.003544 5.584002 6.931890 -2.674500 3.008100 -0.446900 -0.705057 -6.941607 1.776292 -90.260752 6.332848 20.393143 15.760776 -21.308434 -3.299552 0.101896 0.712943 13.921154 23.449864 9.077497 3.592400 -7.125000 0.000000 0.000000 -2.898500 38.995300 0.429200 5.248818 7.764663 1.602837 79.350685 -2.553446 38.781625 -12.806397 17.247185 -2.464319 1.329790 0.197444 34.981270 -14.290405 -28.534096 7.618400 7.125000 0.000000 0.000000 17.927300 -59.310800 -6.393800 
-11.907656 17.933530 2.957820 -164.961527 -78.343023 168.276877 -5.262644 0.626726 2.399451 -10.747638 -1.681922 -14.701898 0.211362 9.364429 26.555657 1.155053 -5.396160 -2.698611 1.749000 -8.322500 -23.698100 1.558144 -0.865914 0.811480 18.597806 5.744487 -8.290024 -0.325815 -7.761501 23.731659 -1.406293 5.449794 -5.961106 -0.304600 3.548700 -9.810200 2.127133 0.050906 1.646239 1.350663 0.283889 -1.241578 -1.338297 0.113534 -5.653388 2.254182 4.009786 -1.766809 -1.036925 5.656562 6.720808 -2.732600 3.036300 -0.544200 -0.708226 -6.943062 1.771686 -90.339006 6.460566 19.431297 15.365874 -20.819667 -3.160012 0.102308 0.717936 14.482999 23.358649 9.106415 3.588600 -7.125000 0.000000 0.000000 -2.972900 39.015400 0.438800 5.253450 7.752055 1.602011 79.312681 -2.777234 38.104732 -12.644819 17.046547 -2.415357 1.337880 0.197456 35.468727 -14.051394 -28.704726 7.536500 7.125000 0.000000 0.000000 18.311900 -59.431100 -6.589700 
-11.909947 17.932037 2.952940 -164.566103 -78.389935 167.869250 -5.249099 0.639180 2.399383 -10.667610 -1.797306 -14.649214 0.217110 9.374571 26.584685 1.157385 -5.411523 -2.680935 1.692800 -8.194600 -23.306700 1.565710 -0.866952 0.813986 18.689650 5.789052 -8.196543 -0.317829 -7.748776 23.699157 -1.386323 5.339016 -5.986563 -0.295800 3.497200 -9.666300 2.202202 0.059766 1.643175 1.345455 0.297477 -1.244835 -1.388446 0.119878 -5.658660 2.421193 3.983784 -1.546967 -1.035631 5.599492 6.339724 -2.785700 2.990900 -0.710000 -0.710462 -6.953470 1.769082 -90.377789 6.567398 18.427473 14.979800 -20.337220 -3.027340 0.107887 0.722986 15.108365 23.319010 9.022418 3.544200 -7.125000 0.000000 0.000000 -2.994900 38.915400 0.449400 5.260460 7.732984 1.595997 79.316606 -2.983535 37.324391 -12.468632 16.821740 -2.361156 1.344583 0.189106 35.903228 -13.972829 -28.741644 7.506800 7.125000 0.000000 0.000000 18.421100 -59.453000 -6.640400 
-11.911839 17.929149 2.946866 -163.238046 -78.337970 166.536733 -5.189379 0.663201 2.399014 -10.404020 -1.876337 -14.641176 0.241175 9.406754 26.679166 1.166024 -5.428323 -2.651726 1.610400 -8.002500 -22.721600 1.595149 -0.863452 0.817730 18.999564 5.878523 -8.050517 -0.293497 -7.705940 23.581380 -1.356201 5.215111 -5.959827 -0.286400 3.441600 -9.510700 2.474265 0.115928 1.719720 1.381505 0.378305 -1.276972 -1.484099 0.161765 -5.753956 2.244722 3.787472 -0.930825 -0.775331 5.228683 5.662924 -2.704300 2.778000 -1.087600 -0.713748 -7.012366 1.775847 -90.389634 6.661927 17.354443 14.526678 -19.768648 -2.873279 0.108626 0.727292 15.911227 23.145354 9.091505 3.544600 -7.125000 0.000000 0.000000 -3.142300 38.974600 0.467000 5.266639 7.664848 1.579021 79.309078 -3.253449 36.640212 -12.293676 16.597863 -2.305865 1.347899 0.189823 36.186513 -13.730581 -28.773292 7.388900 7.125000 0.000000 0.000000 18.709000 -59.435600 -6.740800 
-11.916419 17.926759 2.938999 -161.534043 -78.218859 164.817311 -5.107132 0.697762 2.402339 -10.054786 -1.958442 -14.621300 0.276723 9.451890 26.812645 1.189443 -5.510334 -2.661832 1.473800 -7.671100 -21.719500 1.635262 -0.859580 0.822817 19.414642 6.001294 -7.843758 -0.261424 -7.650651 23.427761 -1.316547 5.026139 -5.988912 -0.305900 3.556100 -9.831000 2.822420 0.167327 1.819390 1.442355 0.460293 -1.336945 -1.583027 0.195568 -5.898725 2.338287 3.752313 -0.436685 -0.703162 5.131884 5.150415 -2.730500 2.707200 -1.358700 -0.715288 -7.039639 1.778974 -90.385545 6.870054 16.325848 14.074376 -19.201423 -2.726177 0.106979 0.733272 16.608941 23.033541 9.209471 3.575400 -7.125000 0.000000 0.000000 -3.240200 39.089600 0.472400 5.274511 7.624224 1.566785 79.302780 -3.584443 36.002694 -12.122377 16.381854 -2.255133 1.354421 0.186060 36.483347 -13.634067 -28.829114 7.353900 7.125000 0.000000 0.000000 18.852700 -59.472400 -6.811500 
